<svg version="1.1" id="Layer_1" xmlns="http://www.w3.org/2000/svg" xmlns:xlink="http://www.w3.org/1999/xlink" x="0px" y="0px"
	 width="100%" viewBox="0 0 500 500" enable-background="new 0 0 500 500" xml:space="preserve">
<path fill="#448EFF" opacity="1.000000" stroke="none" 
	d="
M371.952972,80.228767 
	C370.457764,80.159607 368.962585,80.030121 367.467377,80.029922 
	C289.318848,80.019417 211.170319,80.018959 133.021790,80.027901 
	C131.862289,80.028038 130.702774,80.159424 129.261200,80.542702 
	C127.647377,80.891884 126.300125,81.074875 124.986809,80.936241 
	C121.134857,80.529640 119.949562,82.625809 119.981232,85.997948 
	C119.993752,87.330910 119.978622,88.664131 119.978615,89.997231 
	C119.978333,139.821976 119.979172,189.646729 119.974777,239.471481 
	C119.974625,241.136826 120.503357,243.158035 119.754211,244.382217 
	C118.691093,246.119461 116.701515,248.295197 115.046486,248.347641 
	C113.714668,248.389832 112.136742,245.664673 110.985336,243.953827 
	C110.521103,243.264008 110.899002,242.005295 110.899002,241.005478 
	C110.898712,189.680984 110.894608,138.356491 110.902603,87.031998 
	C110.904373,75.689850 115.634949,70.868744 126.890663,70.866463 
	C209.709717,70.849701 292.528992,70.944656 375.347504,70.728165 
	C384.062958,70.705376 391.422699,75.909035 391.368683,86.608566 
	C391.043915,150.929169 391.039825,215.253113 391.374023,279.573639 
	C391.429138,290.186005 384.227417,295.965729 374.923798,295.723114 
	C363.267090,295.419159 351.596100,295.695648 339.931976,295.617340 
	C337.240936,295.599274 335.541260,295.861603 334.468353,299.074799 
	C332.919342,303.714050 328.779022,305.038055 324.001801,305.028137 
	C290.174438,304.957855 256.346863,304.992645 222.519363,304.992798 
	C207.688583,304.992859 192.857346,304.922607 178.027283,305.024994 
	C172.765015,305.061310 169.210724,303.079681 167.025101,298.124084 
	C166.479095,296.886078 164.118103,295.781494 162.573166,295.756927 
	C150.411652,295.563538 138.244553,295.750793 126.081535,295.612122 
	C116.810287,295.506439 110.434296,289.785797 111.079628,281.969635 
	C111.224586,280.213837 113.137787,277.733246 114.739410,277.249359 
	C115.976669,276.875519 119.248276,278.899475 119.459999,280.206512 
	C120.452408,286.333130 124.535828,286.395630 129.551636,285.963806 
	C141.961609,285.893768 153.942032,285.893768 166.490112,285.893768 
	C167.933060,277.495758 174.050613,276.776642 181.340820,276.805115 
	C228.640961,276.989899 275.942169,276.897217 323.243042,276.903625 
	C331.263000,276.904694 333.090759,278.193054 335.856049,286.022919 
	C347.470673,286.022919 359.259827,286.022919 371.949097,286.017151 
	C381.853516,286.107666 382.052521,285.911591 382.052673,276.807098 
	C382.053558,214.397598 382.053436,151.988098 382.052765,89.578606 
	C382.052673,80.376678 381.243439,79.629723 371.952972,80.228767 
M315.970947,286.100372 
	C269.445740,286.100372 222.920563,286.100372 175.635330,286.100372 
	C177.279358,289.813110 172.841431,295.139465 180.181320,295.131378 
	C225.789780,295.081238 271.398254,295.047974 317.916626,295.040039 
	C318.580109,295.043274 319.244568,295.024872 319.906952,295.053375 
	C323.317444,295.200256 326.280518,295.606506 326.187347,290.254425 
	C326.093384,284.857178 322.782684,286.147522 319.865814,286.034729 
	C318.877258,285.996460 317.881897,286.135010 315.970947,286.100372 
z"/>
<path fill="#4395FF" opacity="1.000000" stroke="none" 
	d="
M164.987488,386.110626 
	C167.182999,383.312592 168.966766,380.004333 171.663834,377.827759 
	C176.560211,373.876251 182.000015,370.598053 187.943665,367.038513 
	C194.759857,368.692719 200.823181,371.521088 206.937866,371.636810 
	C211.989258,371.732422 217.101364,368.621277 222.186569,366.931061 
	C238.674057,371.370148 251.109344,390.944214 247.962494,407.504242 
	C246.154938,417.016266 238.489914,424.848663 227.936920,425.411194 
	C212.871536,426.214233 197.702988,426.138611 182.639221,425.320221 
	C177.615051,425.047272 172.777466,421.339966 167.444061,418.855957 
	C163.750900,412.475067 160.911469,406.270447 162.081223,399.162201 
	C162.803818,394.771179 164.002518,390.458496 164.987488,386.110626 
z"/>
<path fill="#4395FF" opacity="1.000000" stroke="none" 
	d="
M314.060181,366.965332 
	C324.442322,369.791656 330.839691,377.316803 336.694244,386.386230 
	C338.017517,391.574524 340.156097,396.364563 339.715454,400.904236 
	C339.111603,407.125092 336.549957,413.155884 334.827393,419.268127 
	C333.953400,419.598969 332.912811,419.728790 332.232086,420.292847 
	C327.366638,424.324707 321.682831,425.786285 315.521912,425.796539 
	C303.856873,425.815948 292.168549,425.333160 280.531952,425.909119 
	C261.442352,426.853882 248.808258,412.570801 255.420746,391.609589 
	C259.189056,379.664307 267.146851,371.298767 279.824524,367.009033 
	C286.921265,370.920776 293.776733,373.267883 301.213074,371.645599 
	C305.625763,370.682892 309.786255,368.564209 314.060181,366.965332 
z"/>
<path fill="#396DFB" opacity="1.000000" stroke="none" 
	d="
M164.800568,385.828674 
	C164.002518,390.458496 162.803818,394.771179 162.081223,399.162201 
	C160.911469,406.270447 163.750900,412.475067 167.102966,418.888855 
	C163.183624,424.256012 157.665024,425.707153 151.657684,425.763641 
	C142.004395,425.854462 132.328766,425.382874 122.700043,425.877655 
	C105.225418,426.775604 94.693199,413.053528 102.045631,394.396179 
	C105.153915,386.508698 110.677261,380.683136 119.101959,377.023987 
	C125.515396,380.803711 131.725800,383.323944 138.572006,381.890839 
	C143.470825,380.865448 148.125015,378.671356 152.888367,376.998718 
	C156.796799,379.848053 160.705215,382.697388 164.800568,385.828674 
z"/>
<path fill="#396DFB" opacity="1.000000" stroke="none" 
	d="
M334.990112,419.562500 
	C336.549957,413.155884 339.111603,407.125092 339.715454,400.904236 
	C340.156097,396.364563 338.017517,391.574524 337.020630,386.503296 
	C340.805084,383.081970 344.597595,380.053406 349.103027,377.026123 
	C355.514679,380.806427 361.726379,383.322357 368.571930,381.891113 
	C373.471008,380.866852 378.125275,378.671753 382.888794,376.999023 
	C395.547729,381.944824 404.128784,396.643463 402.060150,409.837952 
	C400.634796,418.929443 392.646759,425.586884 382.494202,425.746429 
	C371.506409,425.919098 360.512939,425.868622 349.523682,425.750061 
	C344.023773,425.690735 339.060394,423.972412 334.990112,419.562500 
z"/>
<path fill="#396DFB" opacity="1.000000" stroke="none" 
	d="
M222.256790,366.614197 
	C217.101364,368.621277 211.989258,371.732422 206.937866,371.636810 
	C200.823181,371.521088 194.759857,368.692719 188.307098,367.001770 
	C183.436050,361.463989 178.875473,356.131805 177.820755,348.578552 
	C176.026169,335.727112 182.823090,323.571747 195.104813,318.604218 
	C206.671692,313.925781 220.437546,318.112366 227.895111,328.576691 
	C235.185577,338.806549 234.320648,353.258606 225.824173,362.745148 
	C224.716827,363.981506 223.495529,365.115784 222.256790,366.614197 
z"/>
<path fill="#396DFB" opacity="1.000000" stroke="none" 
	d="
M314.111267,366.633148 
	C309.786255,368.564209 305.625763,370.682892 301.213074,371.645599 
	C293.776733,373.267883 286.921265,370.920776 280.185547,366.979370 
	C276.536041,361.655518 271.943542,356.768677 270.246246,351.026093 
	C266.325989,337.762573 273.349792,324.542938 285.836975,319.042847 
	C297.623718,313.851227 311.781342,317.696594 319.242615,328.116089 
	C327.169495,339.185944 326.087646,353.771851 316.591553,363.803711 
	C315.793304,364.647003 314.972595,365.469055 314.111267,366.633148 
z"/>
<path fill="#2B47E8" opacity="1.000000" stroke="none" 
	d="
M152.856445,376.636749 
	C148.125015,378.671356 143.470825,380.865448 138.572006,381.890839 
	C131.725800,383.323944 125.515396,380.803711 119.463425,377.013641 
	C118.412926,375.752258 117.852394,374.400452 116.994576,373.275269 
	C109.320480,363.209564 110.327339,349.020874 119.367516,340.595764 
	C128.764816,331.837769 143.058960,331.783234 152.459000,340.469513 
	C161.634064,348.947906 162.755249,362.852844 155.096848,373.055328 
	C154.308640,374.105377 153.580521,375.200531 152.856445,376.636749 
z"/>
<path fill="#2B47E8" opacity="1.000000" stroke="none" 
	d="
M382.857483,376.637512 
	C378.125275,378.671753 373.471008,380.866852 368.571930,381.891113 
	C361.726379,383.322357 355.514679,380.806427 349.463867,377.013062 
	C348.422211,375.743835 347.871826,374.384674 347.021515,373.250366 
	C339.183014,362.793671 340.314545,348.796600 349.740356,340.283112 
	C359.235992,331.706573 373.553253,331.923004 382.831238,340.783264 
	C391.910828,349.454071 392.619080,363.677368 384.493378,373.856201 
	C383.883820,374.619812 383.379456,375.467438 382.857483,376.637512 
z"/>
<path fill="#468FFF" opacity="1.000000" stroke="none" 
	d="
M129.250458,125.686012 
	C140.484589,114.026474 151.699554,102.674469 162.964203,91.371986 
	C165.103149,89.225861 167.632874,88.607788 170.003708,90.951469 
	C172.394531,93.314903 171.733551,95.761002 169.565063,97.937004 
	C159.117844,108.420410 148.656494,118.889748 138.194153,129.358078 
	C135.299881,132.253983 132.473007,132.491669 129.531448,128.840958 
	C129.272873,127.739082 129.260696,126.874901 129.250458,125.686012 
z"/>
<path fill="#4790FF" opacity="1.000000" stroke="none" 
	d="
M129.232361,97.659142 
	C131.287094,95.189255 133.059158,92.583305 135.506256,91.066124 
	C137.060715,90.102379 140.828674,89.939415 141.455978,90.868172 
	C142.522842,92.447746 142.816055,95.760597 141.821945,97.311760 
	C137.532471,104.004890 134.169937,104.808617 129.556976,100.811760 
	C129.287369,99.709839 129.261414,98.846939 129.232361,97.659142 
z"/>
<path fill="#4C93FF" opacity="1.000000" stroke="none" 
	d="
M111.670486,259.908813 
	C114.314583,257.516388 116.982460,257.249847 118.795189,259.878418 
	C119.685394,261.169312 119.874985,264.139984 118.998451,265.149811 
	C117.902176,266.412720 115.147873,267.279724 113.527344,266.825684 
	C110.219048,265.898804 110.584625,262.944519 111.670486,259.908813 
z"/>
<path fill="#4790FF" opacity="1.000000" stroke="none" 
	d="
M302.159943,172.816162 
	C298.149445,162.735992 294.694885,152.815414 290.237823,143.367767 
	C286.637787,135.736847 280.786163,129.695984 273.089905,125.764671 
	C258.572266,118.348923 243.283112,123.294739 237.066223,138.411530 
	C234.358307,144.996033 233.423553,152.509277 232.774124,159.699234 
	C231.427979,174.602509 231.516052,189.661774 229.620941,204.478683 
	C228.545578,212.886398 225.836426,221.531464 221.895859,229.036789 
	C212.669006,246.610596 190.331116,253.580109 170.170471,246.319016 
	C153.017868,240.141312 139.624268,221.785706 138.900742,203.572128 
	C138.776886,200.454117 139.174957,197.648941 142.867783,197.246704 
	C146.468994,196.854477 147.593979,199.229721 148.146133,202.457489 
	C149.678299,211.414215 152.419601,219.967026 158.408615,227.054794 
	C168.519836,239.021133 181.700317,241.080292 196.104797,237.957474 
	C208.958282,235.170883 214.878006,225.501144 218.083801,213.853577 
	C222.999725,195.992661 222.175644,177.577881 223.160034,159.311127 
	C223.599091,151.163925 224.867493,142.503464 228.181442,135.170486 
	C239.539474,110.037987 267.529694,105.300293 287.573181,124.403740 
	C296.351562,132.770462 301.960693,143.091156 305.809601,154.417587 
	C309.616241,165.619751 313.182892,176.885818 320.432678,186.524536 
	C329.948486,199.175980 340.932739,201.663544 354.907288,194.062851 
	C357.822296,192.477371 360.643585,191.438583 362.714355,194.824051 
	C364.785309,198.209808 362.526733,200.386505 359.862244,202.217484 
	C347.153687,210.950546 330.317841,209.655350 318.875885,199.045883 
	C311.118530,191.852936 306.369293,182.728683 302.159943,172.816162 
z"/>
<path fill="#CBDAFC" opacity="1.000000" stroke="none" 
	d="
M372.029724,80.623924 
	C381.243439,79.629723 382.052673,80.376678 382.052765,89.578606 
	C382.053436,151.988098 382.053558,214.397598 382.052673,276.807098 
	C382.052521,285.911591 381.853516,286.107666 372.412201,285.951538 
	C372.316345,283.445862 372.953430,281.000214 372.955536,278.554047 
	C373.010071,214.823776 373.007294,151.093445 372.961182,87.363152 
	C372.959656,85.248253 372.403870,83.133766 372.029724,80.623924 
z"/>
<path fill="#A2C1F7" opacity="1.000000" stroke="none" 
	d="
M317.006714,295.009125 
	C271.398254,295.047974 225.789780,295.081238 180.181320,295.131378 
	C172.841431,295.139465 177.279358,289.813110 175.635330,286.100372 
	C222.920563,286.100372 269.445740,286.100372 316.461609,286.576202 
	C316.970428,289.704407 316.988586,292.356750 317.006714,295.009125 
z"/>
<path fill="#7DABFA" opacity="1.000000" stroke="none" 
	d="
M317.461670,295.024597 
	C316.988586,292.356750 316.970428,289.704407 316.920959,286.622406 
	C317.881897,286.135010 318.877258,285.996460 319.865814,286.034729 
	C322.782684,286.147522 326.093384,284.857178 326.187347,290.254425 
	C326.280518,295.606506 323.317444,295.200256 319.906952,295.053375 
	C319.244568,295.024872 318.580109,295.043274 317.461670,295.024597 
z"/>
</svg>
