<?xml version="1.0" standalone="no"?>
<!DOCTYPE svg PUBLIC "-//W3C//DTD SVG 20010904//EN"
 "http://www.w3.org/TR/2001/REC-SVG-20010904/DTD/svg10.dtd">
<svg version="1.0" xmlns="http://www.w3.org/2000/svg"
 width="1220.000000pt" height="1220.000000pt" viewBox="0 0 1220.000000 1220.000000"
 preserveAspectRatio="xMidYMid meet">
<metadata>
Created by potrace 1.14, written by Peter Selinger 2001-2017
</metadata>
<g transform="translate(0.000000,1220.000000) scale(0.100000,-0.100000)"
fill="#000000" stroke="none">
<path d="M6499 12195 c-2 -1 -26 -6 -54 -10 -67 -8 -131 -23 -185 -42 -25 -8
-49 -16 -55 -17 -21 -5 -102 -41 -155 -69 -148 -79 -339 -243 -420 -362 -18
-27 -36 -52 -39 -55 -12 -10 -78 -137 -107 -205 -26 -59 -56 -152 -60 -180 -1
-11 -7 -38 -13 -61 -6 -22 -13 -80 -16 -130 -7 -100 -11 -118 -25 -109 -18 11
-189 30 -260 29 -64 -1 -190 -13 -199 -18 -3 -2 -24 -7 -45 -10 -69 -11 -218
-66 -304 -111 l-83 -44 -69 45 c-55 35 -142 81 -170 89 -3 1 -21 8 -40 16 -31
14 -95 33 -95 29 0 -1 -13 4 -30 10 -29 11 -46 15 -125 26 -73 10 -355 6 -355
-6 0 -1 -11 -3 -25 -5 -90 -12 -187 -46 -317 -112 -257 -130 -478 -384 -563
-648 -7 -22 -17 -51 -21 -63 -5 -13 -12 -40 -15 -60 -3 -21 -11 -43 -16 -49
-7 -9 -7 -13 0 -13 7 0 7 -12 0 -37 -12 -43 -14 -220 -4 -304 6 -53 5 -57 -16
-62 -29 -8 -24 -6 -83 -35 -179 -88 -317 -201 -433 -352 -60 -78 -52 -65 -103
-160 -48 -88 -101 -231 -114 -310 -2 -14 -7 -43 -11 -65 -10 -50 -10 -308 -2
-355 4 -19 10 -51 13 -70 21 -108 102 -309 159 -393 14 -21 26 -40 26 -44 0
-13 109 -143 174 -208 78 -78 187 -162 254 -196 54 -29 57 -32 66 -114 6 -48
16 -115 27 -178 5 -31 7 -61 4 -66 -3 -6 -1 -13 5 -16 6 -4 10 -14 9 -23 -2
-10 0 -33 4 -52 3 -19 9 -55 12 -80 3 -25 7 -52 9 -60 4 -23 16 -101 21 -140
2 -19 6 -46 9 -60 3 -14 8 -45 11 -70 2 -25 6 -54 8 -65 3 -11 8 -42 11 -68 4
-27 9 -56 11 -65 1 -10 6 -44 10 -77 3 -32 8 -62 10 -65 1 -3 6 -32 9 -65 4
-33 9 -67 11 -75 2 -8 6 -35 9 -60 4 -25 8 -58 11 -75 12 -74 15 -93 20 -140
3 -27 9 -63 12 -80 7 -41 11 -63 17 -115 4 -25 8 -56 11 -70 3 -14 7 -43 10
-65 3 -22 7 -49 9 -60 2 -11 7 -45 11 -75 4 -30 9 -64 11 -75 2 -11 6 -38 9
-60 3 -22 7 -51 10 -64 2 -12 7 -44 10 -70 3 -25 7 -59 10 -76 3 -16 8 -48 11
-70 3 -22 7 -51 9 -65 3 -14 7 -43 9 -65 3 -22 7 -49 9 -60 3 -11 8 -42 11
-70 4 -27 9 -57 11 -65 2 -8 7 -42 10 -75 4 -32 8 -63 11 -67 2 -4 6 -28 9
-55 2 -26 6 -59 9 -73 3 -14 7 -45 10 -70 3 -25 8 -56 11 -70 3 -14 7 -43 10
-65 2 -22 6 -49 8 -60 3 -11 8 -47 12 -80 7 -56 9 -70 19 -128 2 -12 7 -44 11
-72 4 -27 9 -57 10 -66 2 -9 6 -40 10 -70 3 -30 9 -67 12 -84 3 -16 7 -43 8
-60 2 -16 4 -30 5 -30 1 0 3 -9 4 -20 2 -11 6 -45 11 -75 4 -30 9 -66 11 -80
2 -14 7 -54 13 -90 5 -36 13 -87 17 -115 3 -27 8 -59 11 -70 2 -11 6 -40 8
-64 2 -24 7 -51 9 -60 3 -9 7 -34 10 -56 3 -22 11 -74 17 -115 6 -41 12 -88
14 -105 3 -16 8 -48 11 -70 9 -52 10 -59 19 -130 4 -33 8 -62 10 -65 2 -3 6
-32 10 -65 3 -33 7 -67 9 -75 14 -75 24 -133 31 -190 8 -68 15 -115 19 -135 2
-11 7 -45 11 -75 3 -30 9 -68 12 -85 3 -16 6 -41 8 -55 1 -14 5 -34 8 -45 3
-11 9 -47 12 -80 3 -33 8 -67 10 -75 3 -8 7 -35 9 -60 3 -25 7 -54 9 -65 5
-21 17 -100 23 -148 5 -43 14 -100 19 -127 3 -14 7 -45 10 -70 3 -25 7 -56 10
-70 3 -14 7 -43 10 -65 3 -22 8 -55 10 -74 8 -50 52 -107 91 -116 11 -2 47
-11 81 -20 35 -9 71 -18 80 -20 10 -2 56 -13 103 -24 47 -12 94 -23 105 -26
11 -2 40 -9 65 -16 25 -6 52 -12 60 -14 8 -2 71 -18 140 -35 69 -18 130 -33
135 -34 6 -1 37 -9 70 -16 74 -17 74 -17 78 -19 1 -2 13 -4 26 -7 39 -7 195
-45 211 -51 8 -3 22 -7 30 -8 8 -2 47 -10 85 -20 74 -18 93 -22 125 -29 23 -5
422 -103 460 -113 36 -9 42 -10 70 -17 14 -3 45 -10 70 -17 25 -6 52 -12 60
-14 8 -2 51 -12 95 -24 82 -20 107 -26 160 -37 17 -3 37 -8 45 -11 15 -6 20
-7 80 -18 19 -4 39 -10 45 -13 5 -3 16 -7 25 -8 8 -2 22 -4 30 -7 8 -2 42 -10
75 -17 74 -17 74 -17 78 -19 1 -2 11 -4 22 -6 11 -2 50 -11 85 -20 36 -9 72
-17 80 -19 8 -2 44 -11 79 -21 90 -23 124 -16 241 52 48 28 553 314 615 348
28 16 83 48 123 72 41 24 75 43 78 43 2 0 38 20 80 45 41 25 77 45 78 45 2 0
58 32 125 70 68 39 127 70 132 70 5 0 9 5 9 10 0 6 4 10 9 10 13 0 219 117
259 147 32 24 49 53 58 98 2 11 7 34 11 50 3 17 7 37 8 45 2 14 8 43 20 95 3
11 16 74 30 140 33 154 33 156 38 180 3 11 12 54 20 95 9 41 18 86 21 100 43
198 58 269 61 292 2 15 9 46 16 70 6 24 13 53 15 66 14 78 65 326 71 342 3 8
7 22 8 30 3 18 13 65 20 100 3 14 8 36 11 50 3 14 7 35 9 48 3 12 7 34 10 50
3 15 8 35 11 44 3 9 7 27 9 40 4 20 24 115 30 143 1 6 5 28 10 50 4 22 9 47
11 55 1 8 23 112 49 230 46 215 51 240 59 283 3 12 12 53 21 90 8 37 13 72 10
77 -3 5 -1 11 4 14 4 3 11 23 15 43 11 69 17 98 27 136 6 21 12 50 14 65 3 15
16 81 30 147 14 66 27 130 29 143 3 12 7 30 10 40 3 9 7 28 10 42 2 14 9 45
15 70 5 24 8 46 6 49 -3 2 0 10 6 18 6 7 9 13 6 13 -3 0 -1 15 4 33 5 17 12
48 15 67 3 19 8 42 11 50 3 8 7 25 9 37 1 12 16 84 33 160 16 76 32 149 34
163 3 14 8 43 12 65 4 22 10 44 13 49 3 5 6 21 8 35 2 14 14 78 28 141 15 63
28 131 31 150 3 19 11 53 16 75 6 22 13 51 15 65 3 14 11 57 20 95 8 39 17 81
19 95 2 14 12 63 23 110 11 47 23 103 27 125 8 46 13 70 15 70 1 0 3 9 4 20 2
11 15 76 30 145 15 69 30 136 32 150 3 14 9 44 15 68 5 23 12 59 15 80 3 20 9
41 12 47 3 5 7 21 8 35 1 14 7 44 13 65 5 22 13 56 16 75 3 19 12 63 20 96 8
34 16 73 19 85 4 26 19 101 21 109 1 3 5 23 10 45 11 58 14 73 20 95 12 47 29
131 30 145 0 5 36 30 81 55 85 47 147 89 152 102 2 4 8 8 13 8 5 0 17 8 28 18
81 75 135 131 149 155 9 15 19 27 23 27 9 0 112 171 114 190 0 3 3 10 6 15 7
10 28 74 30 87 0 4 7 30 14 57 7 28 13 90 13 138 0 77 -3 112 -22 210 -8 38
-38 147 -47 171 -5 12 -13 32 -17 45 -5 12 -29 65 -54 117 -70 146 -170 272
-287 360 l-34 26 27 42 c14 23 26 44 26 46 0 3 13 33 29 68 63 137 84 249 83
431 -1 59 -3 111 -6 115 -2 4 -7 28 -11 52 -8 55 -44 165 -79 243 -88 196
-277 389 -475 484 -42 21 -78 38 -81 38 -3 1 -28 9 -56 18 -28 10 -61 19 -73
22 -12 2 -31 7 -40 10 -10 3 -39 7 -65 9 -26 3 -49 6 -50 8 -1 2 -17 34 -35
71 -62 126 -143 239 -241 336 -55 54 -202 168 -230 179 -8 3 -40 20 -72 38
-56 32 -152 71 -197 80 -14 3 -28 7 -33 10 -5 3 -21 8 -36 11 -41 8 -57 11
-57 13 0 1 -13 3 -30 5 -165 22 -276 22 -418 0 -32 -5 -36 -3 -48 25 -8 16
-17 30 -21 30 -5 0 -8 5 -8 10 0 21 -104 160 -172 230 -53 54 -164 150 -174
150 -3 0 -24 14 -45 31 -21 17 -39 27 -39 23 0 -4 -8 0 -17 8 -61 51 -263 124
-428 154 -34 7 -311 15 -316 9z m311 -294 c199 -44 356 -129 494 -267 96 -96
144 -168 221 -337 33 -71 110 -100 191 -72 52 17 104 26 189 32 92 5 81 5 150
-1 175 -16 322 -69 465 -166 51 -34 153 -129 190 -176 72 -90 122 -180 164
-289 34 -91 68 -116 164 -122 199 -12 331 -63 475 -183 116 -96 199 -233 239
-394 16 -66 19 -101 14 -191 -5 -114 -7 -133 -20 -175 -33 -110 -91 -214 -180
-320 -44 -52 -45 -57 -43 -111 3 -48 8 -61 34 -87 18 -18 52 -37 86 -47 75
-22 153 -75 214 -147 72 -87 154 -259 185 -393 28 -123 31 -227 8 -305 -8 -25
-14 -47 -15 -50 -3 -14 -51 -100 -77 -138 -64 -93 -203 -209 -323 -269 -47
-24 -135 -53 -164 -56 -12 -1 -21 -4 -21 -8 0 -3 -17 -9 -38 -13 -22 -3 -61
-12 -88 -21 -69 -20 -193 -56 -215 -61 -24 -5 -27 -6 -179 -49 -69 -20 -136
-38 -150 -41 -37 -9 -43 -10 -60 -17 -21 -8 -168 -48 -198 -53 -14 -3 -29 -7
-34 -10 -4 -3 -16 -7 -25 -9 -10 -2 -58 -16 -108 -30 -49 -14 -98 -27 -108
-30 -10 -2 -27 -7 -37 -10 -10 -3 -27 -8 -37 -10 -10 -2 -67 -18 -128 -35 -60
-17 -117 -33 -125 -35 -8 -2 -54 -15 -102 -29 -47 -14 -101 -28 -119 -31 -18
-3 -36 -8 -41 -11 -5 -3 -64 -21 -131 -39 -67 -18 -171 -47 -232 -65 -60 -17
-121 -33 -135 -36 -14 -3 -56 -14 -93 -26 -38 -11 -81 -20 -95 -20 -28 0 -34
1 -172 27 -47 9 -98 18 -115 19 -41 5 -100 15 -160 27 -27 5 -63 11 -80 13
-16 3 -46 7 -65 11 -19 3 -46 8 -60 10 -14 2 -36 6 -50 9 -14 3 -43 8 -64 11
-21 3 -48 8 -60 10 -12 3 -34 7 -51 9 -28 3 -57 8 -130 22 -40 7 -73 12 -180
30 -188 31 -374 63 -400 68 -11 2 -42 7 -68 10 -27 4 -59 10 -70 12 -12 3 -38
7 -57 10 -19 2 -57 8 -85 14 -44 8 -83 15 -150 25 -11 2 -33 6 -50 9 -16 3
-46 8 -65 11 -19 3 -48 8 -65 11 -16 3 -43 7 -60 10 -16 2 -41 6 -55 9 -28 6
-84 16 -115 20 -11 1 -60 10 -110 18 -49 9 -106 18 -125 21 -19 3 -44 7 -55
10 -11 2 -54 9 -95 16 -41 6 -85 13 -97 16 -13 2 -33 6 -45 8 -13 3 -57 10
-98 16 -41 6 -86 14 -100 16 -14 3 -38 7 -55 10 -16 3 -55 10 -85 15 -30 6
-64 12 -75 13 -11 1 -39 6 -63 10 -45 8 -64 11 -127 21 -22 3 -51 8 -65 10
-14 3 -41 8 -60 11 -19 2 -48 8 -65 11 -16 3 -39 7 -50 9 -11 1 -35 5 -52 8
-78 14 -100 18 -125 22 -16 2 -43 6 -60 10 -18 3 -44 7 -58 9 -69 11 -98 17
-130 27 -34 10 -150 67 -160 78 -3 3 -21 17 -40 30 -134 92 -292 300 -345 455
-9 28 -21 58 -27 68 -5 11 -7 21 -4 24 3 3 1 14 -4 23 -35 66 -32 369 5 457 8
18 14 34 13 36 -1 1 5 20 12 42 22 69 80 169 145 253 14 17 99 103 122 122 89
75 251 154 354 174 42 8 63 19 91 47 35 36 44 87 28 158 -8 31 -15 61 -16 66
-17 75 -21 211 -9 285 12 72 14 80 30 139 48 166 169 339 320 454 52 40 215
124 250 130 11 1 25 5 30 8 58 34 320 42 435 13 14 -3 37 -8 53 -11 15 -3 30
-9 33 -14 3 -5 12 -9 21 -9 35 0 203 -92 251 -138 48 -44 85 -64 126 -67 38
-3 54 3 113 41 121 78 259 142 323 149 14 2 52 9 85 15 56 11 242 9 305 -4 64
-12 85 -18 157 -45 116 -43 178 -31 224 42 17 27 19 42 13 97 -15 148 -8 347
16 420 6 19 13 44 15 55 3 11 9 29 14 40 6 11 20 43 32 70 55 126 192 290 315
378 113 81 286 150 409 164 28 3 51 7 53 8 9 8 224 -4 272 -14z m-3869 -4561
c30 -5 68 -11 84 -14 17 -3 41 -7 55 -10 14 -2 84 -14 155 -26 72 -12 141 -23
155 -26 14 -2 40 -7 59 -10 18 -3 43 -8 55 -10 11 -2 41 -7 66 -10 25 -3 54
-8 65 -10 11 -3 35 -7 54 -10 18 -3 43 -8 55 -10 11 -2 39 -7 61 -10 21 -2 40
-6 41 -7 4 -4 17 -146 18 -189 1 -21 3 -38 6 -38 3 0 5 -21 6 -48 1 -26 4 -74
8 -107 3 -33 9 -85 11 -115 3 -30 8 -82 11 -115 3 -33 8 -82 9 -110 2 -27 5
-50 5 -50 1 0 3 -16 4 -35 3 -36 14 -155 22 -225 4 -45 12 -132 19 -215 3 -30
7 -75 10 -100 3 -25 8 -74 11 -110 8 -107 12 -152 19 -210 3 -30 8 -79 10
-109 7 -93 15 -184 20 -226 3 -22 7 -65 10 -95 3 -30 7 -77 9 -105 3 -27 8
-79 11 -115 3 -36 8 -87 11 -115 7 -72 13 -131 19 -205 3 -36 8 -87 11 -115 8
-88 15 -163 29 -315 2 -30 7 -75 10 -100 3 -25 7 -71 10 -103 2 -31 7 -62 10
-67 3 -6 1 -10 -5 -10 -6 0 -8 -5 -4 -12 9 -14 9 -19 18 -133 4 -44 9 -99 11
-122 11 -97 14 -132 20 -208 4 -44 8 -90 10 -101 2 -12 6 -61 10 -110 4 -49 8
-99 10 -112 6 -35 24 -227 30 -317 3 -50 10 -119 20 -205 3 -25 7 -72 10 -105
3 -33 8 -87 11 -120 7 -62 9 -94 18 -208 3 -37 7 -84 10 -105 8 -58 18 -161
22 -227 1 -33 3 -60 4 -60 3 0 8 -50 14 -130 4 -44 8 -98 11 -120 3 -22 7 -69
10 -105 10 -107 12 -131 20 -220 4 -47 9 -98 11 -115 1 -16 6 -64 9 -107 l7
-76 -174 43 c-95 24 -184 46 -198 48 -14 3 -45 10 -70 17 -25 7 -58 14 -75 16
-16 2 -32 9 -33 14 -2 6 -8 8 -13 5 -17 -11 -89 15 -90 33 -2 22 -6 50 -13 82
-3 14 -8 48 -12 75 -3 28 -7 59 -9 70 -6 36 -15 99 -21 145 -3 25 -7 56 -10
70 -3 14 -7 36 -8 50 -7 53 -17 116 -22 140 -2 14 -7 41 -9 60 -5 46 -14 106
-21 150 -3 19 -7 51 -10 70 -2 19 -6 46 -9 60 -5 25 -8 46 -20 133 -4 27 -8
56 -10 65 -1 10 -6 37 -9 62 -3 25 -10 71 -16 104 -5 32 -9 61 -8 65 0 3 -1 8
-2 11 -1 3 -3 16 -5 30 -3 30 -25 177 -31 205 -4 18 -9 53 -18 130 -2 17 -6
46 -10 65 -7 47 -16 108 -22 149 -2 19 -7 48 -10 65 -3 17 -7 47 -9 66 -2 19
-8 62 -13 95 -6 33 -13 78 -16 100 -6 40 -12 77 -21 137 -3 18 -7 47 -9 63 -2
17 -7 50 -10 75 -4 25 -9 59 -11 75 -2 17 -6 39 -9 51 -4 18 -12 74 -22 154
-1 14 -5 34 -7 45 -3 11 -8 43 -11 70 -4 28 -9 61 -11 75 -3 21 -8 59 -20 140
-1 8 -5 33 -8 55 -4 22 -9 60 -12 85 -3 25 -10 70 -15 100 -5 30 -12 71 -14
90 -9 70 -18 135 -22 155 -2 11 -7 40 -10 65 -3 25 -7 52 -9 60 -2 8 -7 38
-10 65 -4 28 -9 64 -12 80 -3 17 -6 41 -8 55 -4 35 -15 110 -20 140 -3 14 -7
43 -10 65 -2 22 -7 51 -10 65 -3 14 -8 45 -10 70 -2 25 -4 45 -5 45 -1 0 -3 9
-4 20 -2 11 -6 40 -10 65 -3 25 -8 61 -11 80 -3 19 -7 46 -10 60 -3 14 -8 45
-10 70 -2 25 -7 56 -10 70 -3 14 -8 45 -11 70 -3 25 -7 52 -9 60 -3 8 -7 40
-10 71 -3 31 -8 67 -10 80 -12 61 -16 86 -19 109 -5 38 -17 122 -22 150 -3 14
-7 45 -10 70 -2 25 -7 59 -10 75 -3 17 -7 45 -10 64 -2 19 -7 48 -10 65 -3 17
-7 47 -9 66 -2 19 -6 46 -9 60 -4 21 -22 144 -31 217 -2 12 -6 34 -9 50 -5 25
-11 64 -21 143 -2 14 -6 39 -9 55 -3 17 -8 50 -11 75 -3 25 -8 60 -11 78 -7
37 -3 38 87 22z m6474 -39 c-4 -9 -8 -27 -11 -41 -2 -14 -5 -34 -8 -45 -5 -21
-80 -376 -96 -455 -5 -25 -12 -55 -15 -67 -6 -28 -10 -46 -20 -98 -5 -22 -10
-47 -12 -55 -2 -8 -5 -26 -8 -40 -2 -14 -11 -54 -19 -90 -8 -36 -18 -81 -21
-100 -3 -19 -12 -63 -20 -96 -8 -34 -16 -73 -19 -85 -8 -40 -15 -73 -23 -104
-3 -16 -8 -37 -9 -45 -4 -27 -14 -75 -20 -100 -4 -14 -8 -34 -10 -46 -1 -11
-7 -39 -14 -63 -6 -23 -13 -54 -15 -69 -2 -15 -7 -38 -10 -52 -3 -14 -8 -38
-10 -55 -3 -16 -8 -38 -11 -47 -3 -9 -7 -27 -10 -40 -2 -13 -7 -36 -10 -53 -4
-16 -8 -39 -9 -50 -2 -11 -4 -20 -5 -20 -1 0 -3 -7 -5 -15 -2 -8 -13 -58 -24
-110 -12 -52 -23 -106 -25 -120 -2 -14 -9 -52 -16 -85 -7 -33 -14 -69 -16 -80
-1 -11 -3 -20 -4 -20 -2 0 -4 -10 -13 -55 -3 -14 -22 -101 -41 -194 -20 -93
-39 -183 -42 -200 -3 -17 -13 -67 -24 -111 -18 -75 -22 -95 -35 -170 -3 -16
-11 -48 -17 -70 -5 -22 -12 -49 -13 -60 -2 -11 -6 -31 -10 -45 -3 -14 -8 -41
-11 -60 -3 -19 -9 -51 -14 -70 -7 -28 -28 -124 -45 -210 -2 -8 -17 -82 -35
-165 -18 -82 -34 -163 -36 -178 -2 -16 -6 -33 -10 -38 -3 -5 -8 -26 -10 -47
-3 -20 -9 -53 -14 -72 -5 -19 -12 -47 -15 -62 -11 -60 -17 -87 -37 -178 -11
-52 -22 -104 -24 -115 -2 -11 -13 -63 -25 -115 -11 -52 -22 -106 -24 -120 -1
-14 -8 -45 -15 -70 -7 -25 -14 -56 -15 -70 -3 -23 -26 -131 -75 -355 -11 -49
-22 -101 -25 -115 -3 -14 -9 -47 -15 -75 -6 -27 -12 -60 -15 -73 -2 -13 -6
-31 -9 -40 -3 -9 -8 -32 -11 -49 -3 -18 -12 -61 -20 -95 -8 -35 -17 -79 -20
-98 -3 -19 -10 -51 -15 -70 -5 -19 -12 -48 -15 -65 -3 -16 -8 -43 -11 -60 -3
-16 -14 -70 -25 -120 -11 -49 -21 -98 -22 -108 -1 -10 -8 -24 -17 -31 -28 -24
-130 -77 -130 -68 0 5 4 31 9 58 5 27 12 74 16 103 3 30 8 57 9 60 2 3 7 29
10 56 4 28 9 62 11 76 3 14 7 41 9 60 3 19 8 45 11 59 3 14 7 45 10 69 2 24 6
51 9 60 3 9 7 36 10 61 3 25 8 54 10 65 2 11 7 42 10 68 4 27 9 56 10 65 2 10
7 39 10 65 4 27 9 56 11 65 1 10 6 37 9 62 3 25 8 55 10 66 6 29 14 79 21 134
7 50 13 85 15 85 1 0 3 16 5 35 2 19 13 91 24 160 11 69 22 141 25 160 3 19 8
51 11 70 3 19 7 49 9 65 4 29 10 65 21 130 3 17 8 50 11 75 3 25 8 52 11 60 3
8 6 29 8 45 3 32 12 100 22 150 3 17 6 41 8 55 4 36 34 231 40 260 3 14 8 45
11 70 3 25 7 52 9 60 2 8 7 38 10 65 4 28 8 57 11 66 3 9 7 36 9 60 3 24 7 55
10 69 3 14 8 43 11 65 3 22 7 51 10 65 2 14 7 41 10 60 3 19 7 46 10 60 3 14
7 41 9 60 3 19 6 46 9 60 2 14 6 44 10 67 4 23 9 55 11 70 2 15 7 46 10 68 9
51 12 71 19 120 6 38 11 69 23 145 3 19 6 46 8 60 1 14 3 25 5 25 1 0 3 9 4
20 13 95 17 123 21 145 5 24 7 35 20 130 4 25 8 56 11 70 2 14 7 41 10 60 3
19 9 60 14 90 5 30 12 75 15 100 5 42 7 56 20 120 5 30 16 104 20 145 2 17 4
30 5 30 3 0 21 115 25 160 1 6 4 27 9 48 4 20 9 54 11 75 3 20 7 48 10 62 3
14 8 45 11 70 7 54 11 75 18 115 2 17 8 50 11 75 10 65 12 81 19 120 3 19 8
53 11 75 3 22 10 65 15 95 5 30 12 73 15 95 10 69 15 99 20 125 3 14 8 45 11
70 5 40 8 58 18 110 2 9 34 23 87 36 46 13 118 32 159 44 41 11 83 23 93 25 9
3 25 7 35 10 9 2 34 9 55 14 21 5 41 12 44 15 11 11 24 -6 18 -23z m-5150
-185 c50 -9 106 -18 125 -21 19 -3 62 -10 95 -16 33 -6 72 -13 87 -14 15 -2
53 -9 85 -14 32 -6 76 -13 98 -16 22 -4 47 -8 55 -10 8 -2 29 -6 45 -9 17 -3
102 -17 190 -32 88 -14 171 -28 184 -30 13 -1 27 -7 30 -13 7 -10 13 -162 15
-343 1 -54 3 -98 6 -98 3 0 6 -48 6 -108 1 -101 8 -293 19 -572 3 -69 7 -178
9 -243 2 -65 6 -120 9 -123 2 -3 1 -20 -3 -39 -4 -19 -5 -37 -2 -40 4 -3 7
-43 8 -88 2 -86 12 -362 19 -532 6 -149 22 -565 30 -800 2 -82 5 -150 5 -150
1 0 3 -52 5 -115 4 -152 15 -426 20 -520 6 -124 17 -468 19 -582 0 -60 3 -108
6 -108 3 0 6 -53 6 -118 1 -64 5 -191 8 -282 4 -91 9 -217 11 -280 3 -63 7
-180 10 -260 4 -80 8 -203 11 -275 2 -71 6 -188 9 -260 17 -498 23 -444 -49
-424 -21 6 -47 13 -57 15 -25 5 -40 9 -119 29 -36 9 -76 18 -90 21 -14 3 -52
12 -85 21 -33 8 -64 16 -70 17 -5 1 -72 17 -147 36 l-138 33 -1 31 c-1 17 -2
42 -4 56 -7 78 -18 190 -21 220 -1 19 -5 64 -8 100 -3 36 -8 88 -11 115 -4 28
-8 77 -11 110 -2 33 -7 78 -9 100 -6 42 -12 112 -19 205 -2 30 -7 78 -10 105
-3 28 -8 77 -11 110 -3 33 -8 85 -11 115 -3 30 -7 80 -9 110 -2 30 -5 55 -6
55 0 0 -2 16 -3 35 -4 52 -17 191 -21 225 -5 32 -15 142 -20 215 -2 25 -6 70
-9 100 -3 30 -8 84 -11 120 -3 36 -7 79 -10 95 -2 17 -7 66 -10 110 -3 44 -8
98 -11 120 -5 41 -10 95 -19 200 -2 33 -7 83 -10 110 -14 137 -17 164 -21 220
-2 33 -6 78 -8 100 -3 22 -8 74 -12 115 -4 41 -8 89 -10 105 -2 17 -6 64 -9
105 -3 41 -8 95 -11 120 -3 25 -7 65 -8 90 -3 42 -7 75 -22 218 -7 57 -8 69
-18 212 -4 41 -9 95 -12 120 -6 51 -10 94 -19 195 -3 39 -8 88 -10 110 -2 22
-7 72 -10 110 -3 39 -8 86 -10 105 -3 19 -7 64 -10 100 -7 86 -13 154 -20 215
-3 28 -7 84 -10 125 -3 41 -7 89 -10 105 -2 17 -7 62 -10 100 -3 39 -8 86 -10
105 -3 19 -7 69 -10 110 -3 41 -8 91 -10 110 -3 19 -7 64 -10 100 -3 36 -8 85
-10 110 -6 54 -15 146 -20 215 -3 28 -6 66 -9 85 -2 19 -7 76 -10 127 -7 85
-6 91 11 88 10 -2 59 -11 108 -19z m4361 -25 c-3 -4 -8 -30 -11 -57 -4 -27 -8
-56 -10 -64 -2 -8 -7 -33 -10 -55 -3 -23 -7 -50 -9 -61 -2 -12 -7 -45 -11 -74
-4 -29 -9 -62 -11 -74 -2 -12 -7 -41 -10 -66 -3 -25 -7 -52 -9 -60 -2 -8 -6
-28 -9 -45 -14 -87 -18 -113 -22 -145 -2 -19 -9 -60 -14 -90 -5 -30 -12 -73
-15 -95 -2 -22 -7 -49 -9 -61 -2 -12 -7 -45 -11 -75 -4 -30 -8 -56 -10 -59 -2
-3 -6 -30 -10 -60 -6 -54 -13 -105 -20 -140 -2 -10 -7 -40 -11 -67 -3 -26 -8
-57 -10 -68 -2 -10 -6 -35 -9 -55 -3 -20 -8 -47 -10 -60 -3 -14 -8 -45 -11
-70 -3 -25 -8 -54 -10 -65 -2 -11 -7 -40 -10 -65 -3 -25 -7 -52 -9 -60 -2 -14
-11 -65 -21 -132 -2 -16 -7 -43 -10 -60 -3 -18 -7 -49 -9 -68 -2 -19 -4 -35
-5 -35 -1 0 -3 -9 -4 -20 -1 -11 -6 -36 -9 -55 -4 -19 -9 -57 -12 -85 -3 -27
-8 -57 -10 -65 -2 -8 -7 -35 -10 -60 -3 -25 -8 -53 -12 -64 -3 -10 -6 -36 -8
-57 -2 -21 -6 -51 -9 -66 -3 -15 -8 -46 -11 -68 -3 -23 -8 -52 -10 -65 -3 -14
-8 -43 -11 -65 -3 -22 -7 -49 -9 -60 -2 -11 -6 -38 -9 -60 -3 -22 -8 -53 -11
-70 -2 -16 -7 -48 -10 -70 -3 -22 -10 -65 -15 -95 -5 -30 -12 -75 -15 -100 -3
-25 -8 -52 -10 -60 -2 -8 -6 -36 -9 -62 -3 -26 -8 -58 -11 -70 -3 -13 -7 -39
-10 -58 -2 -19 -7 -51 -10 -70 -6 -36 -9 -54 -19 -125 -4 -22 -10 -65 -16 -95
-5 -30 -12 -73 -15 -95 -8 -56 -16 -104 -21 -129 -2 -11 -6 -42 -9 -67 -3 -25
-8 -56 -11 -70 -3 -13 -7 -40 -9 -59 -3 -19 -6 -44 -9 -56 -2 -12 -7 -45 -11
-74 -4 -29 -9 -62 -11 -74 -5 -26 -11 -59 -19 -116 -4 -25 -9 -58 -12 -75 -7
-45 -11 -74 -18 -135 -4 -30 -11 -60 -16 -66 -5 -6 -7 -13 -4 -16 3 -3 -1 -45
-10 -94 -14 -86 -20 -126 -31 -209 -3 -22 -7 -47 -9 -55 -2 -8 -7 -35 -10 -60
-7 -51 -13 -85 -15 -85 -1 0 -3 -16 -5 -35 -3 -39 -12 -101 -20 -140 -2 -14
-7 -38 -9 -55 -3 -16 -8 -48 -11 -70 -4 -22 -8 -53 -11 -70 -2 -16 -5 -39 -7
-50 -5 -22 -20 -119 -23 -147 -1 -10 -2 -19 -4 -20 -1 -2 -3 -16 -5 -33 -2
-16 -8 -56 -14 -88 -6 -32 -10 -61 -9 -65 1 -4 -1 -20 -5 -37 -4 -16 -9 -46
-11 -65 -6 -49 -16 -70 -32 -70 -8 0 -14 -4 -14 -10 0 -5 -5 -10 -11 -10 -6 0
-41 -17 -77 -39 -37 -21 -93 -53 -125 -70 l-57 -32 5 48 c3 26 7 77 10 113 4
36 8 76 10 90 4 27 16 139 20 180 1 14 5 54 9 90 4 36 9 83 12 105 2 22 6 58
9 80 2 22 7 65 10 95 3 30 8 71 10 90 3 19 7 59 10 90 3 30 8 78 11 105 3 28
7 68 9 90 9 83 15 141 21 185 3 25 8 68 10 95 2 28 6 64 8 80 2 17 7 62 11
100 3 39 8 86 11 105 2 19 6 58 9 85 3 28 8 70 10 95 3 25 7 63 9 85 2 22 7
65 11 95 4 30 9 71 10 90 2 19 6 62 10 95 4 33 8 78 10 100 2 22 4 40 5 40 1
0 3 18 4 40 4 44 16 153 22 200 2 17 7 57 10 90 6 65 9 86 19 184 7 74 11 105
19 181 4 30 9 78 12 105 3 28 7 66 9 85 2 19 7 61 10 93 7 74 14 143 20 187 8
58 16 133 20 185 2 28 6 70 9 95 6 44 9 70 21 180 8 74 14 125 20 190 12 118
16 156 21 192 2 20 7 63 9 95 2 32 5 58 6 58 1 0 3 17 12 110 7 60 12 113 22
203 8 67 15 130 20 182 2 25 4 45 5 45 1 0 6 43 15 145 3 36 8 79 10 95 2 17
7 53 9 80 9 90 17 159 22 195 3 19 7 60 10 90 2 30 6 71 9 90 5 44 15 132 20
185 2 22 7 67 10 100 4 33 8 75 10 93 1 18 6 36 9 40 4 3 87 28 184 55 97 27
202 55 232 64 30 8 62 17 70 18 8 2 35 10 60 18 44 14 65 13 56 -2z m-2986
-206 c19 -3 49 -8 65 -11 17 -2 41 -6 55 -9 32 -7 63 -12 120 -21 78 -11 84
-12 140 -23 61 -11 112 -20 150 -26 38 -6 202 -34 230 -39 14 -2 59 -10 100
-16 41 -7 84 -14 95 -17 11 -2 63 -11 115 -19 52 -8 102 -17 110 -18 12 -2 15
-18 14 -72 -1 -67 -10 -262 -19 -414 -4 -68 -7 -138 -21 -390 -2 -47 -6 -134
-8 -195 -5 -118 -14 -293 -21 -415 -3 -41 -8 -131 -11 -200 -3 -69 -7 -154 -9
-190 -2 -36 -7 -126 -10 -200 -4 -74 -9 -157 -10 -185 -2 -27 -6 -111 -9 -185
-3 -74 -8 -173 -11 -220 -6 -109 -16 -310 -29 -595 -3 -60 -8 -155 -11 -210
-12 -216 -15 -285 -21 -405 -3 -69 -7 -150 -9 -180 -1 -30 -6 -120 -9 -200 -4
-80 -9 -176 -11 -215 -2 -38 -7 -126 -10 -195 -3 -69 -8 -161 -10 -205 -2 -44
-7 -128 -10 -187 -3 -60 -7 -154 -10 -210 -3 -57 -7 -146 -10 -198 -2 -52 -7
-133 -10 -180 -3 -47 -7 -141 -10 -210 -12 -278 -25 -503 -29 -507 -3 -4 -273
59 -331 77 -16 5 -48 12 -70 16 -49 10 -54 11 -60 14 -3 1 -8 3 -12 4 -12 3
-167 40 -175 42 -5 1 -9 2 -10 4 -2 1 -16 4 -33 6 -16 3 -32 7 -34 10 -3 3 -6
35 -7 72 -1 37 -5 135 -9 217 -4 83 -9 206 -10 275 -2 69 -4 125 -5 125 -1 0
-3 56 -5 125 -2 69 -6 193 -9 275 -15 375 -19 476 -30 805 -3 69 -7 188 -10
265 -9 217 -17 418 -22 560 -2 72 -6 180 -9 240 -2 61 -6 180 -9 265 -3 85 -8
218 -11 295 -3 77 -8 190 -10 250 -2 61 -6 178 -10 260 -11 298 -16 413 -20
555 -11 302 -14 389 -19 520 -8 192 -15 367 -31 825 -3 66 -7 200 -11 297 l-6
177 29 -4 c15 -2 44 -6 63 -10z m2084 -52 c-1 -16 -5 -55 -8 -88 -4 -33 -8
-78 -11 -100 -2 -22 -7 -67 -11 -100 -3 -33 -7 -73 -10 -90 -4 -32 -15 -131
-19 -180 -2 -16 -6 -57 -9 -90 -12 -113 -27 -249 -42 -370 -2 -22 -6 -65 -8
-95 -3 -30 -7 -76 -10 -102 -6 -45 -9 -70 -21 -178 -11 -104 -16 -147 -20
-190 -2 -25 -6 -63 -9 -85 -2 -22 -8 -69 -12 -105 -3 -36 -8 -76 -10 -90 -1
-14 -5 -52 -8 -85 -4 -33 -8 -76 -11 -95 -2 -19 -7 -64 -10 -100 -4 -36 -9
-78 -11 -95 -2 -16 -6 -57 -9 -90 -3 -33 -7 -71 -10 -85 -2 -14 -7 -59 -10
-100 -4 -41 -8 -86 -10 -100 -3 -23 -13 -116 -21 -185 -2 -16 -6 -61 -9 -99
-4 -38 -8 -77 -10 -87 -2 -10 -6 -49 -10 -86 -3 -37 -8 -81 -10 -98 -5 -32
-15 -126 -20 -190 -2 -22 -4 -40 -5 -40 0 0 -3 -18 -5 -40 -7 -75 -15 -150
-21 -200 -3 -27 -7 -66 -9 -85 -2 -19 -6 -60 -9 -90 -4 -30 -8 -71 -10 -90 -2
-19 -7 -60 -10 -90 -4 -30 -9 -75 -11 -100 -2 -25 -7 -65 -10 -90 -3 -25 -8
-67 -10 -95 -2 -27 -6 -70 -10 -95 -3 -25 -8 -67 -10 -95 -12 -114 -15 -142
-19 -180 -3 -22 -8 -71 -12 -110 -7 -75 -12 -110 -14 -110 0 0 -3 -22 -5 -50
-3 -48 -11 -121 -20 -195 -2 -19 -7 -60 -10 -90 -3 -30 -7 -68 -9 -85 -2 -16
-7 -64 -11 -105 -3 -41 -8 -86 -10 -100 -6 -38 -14 -107 -20 -185 -3 -38 -8
-81 -10 -95 -2 -14 -7 -54 -10 -90 -4 -36 -9 -78 -11 -95 -3 -28 -13 -113 -19
-180 -14 -136 -18 -161 -28 -171 -7 -7 -60 -39 -119 -72 -94 -53 -111 -58
-110 -32 0 3 3 68 7 145 3 77 8 176 10 220 4 84 14 267 20 395 11 214 17 332
21 400 2 41 7 136 9 210 3 74 7 162 9 195 3 33 7 121 11 195 3 74 8 164 10
200 4 65 11 195 21 405 2 61 7 148 9 195 3 47 7 135 10 195 3 61 7 151 10 200
3 50 7 144 10 210 11 228 14 280 15 280 0 0 3 50 5 110 2 61 7 148 9 195 3 47
8 141 11 210 4 69 8 154 10 190 5 76 17 322 19 397 0 29 4 53 7 53 4 0 3 16
-1 34 -4 19 -5 37 -3 40 3 3 7 34 8 68 4 80 14 294 20 418 3 52 7 136 10 185
2 50 7 140 10 200 4 61 8 146 10 190 2 44 7 136 10 205 3 69 8 163 10 210 2
47 5 87 6 90 1 3 2 11 3 19 0 8 38 24 99 41 53 15 97 25 97 23 0 -2 6 -1 13 4
6 4 17 8 22 9 13 2 224 61 300 84 33 10 63 19 66 19 4 1 5 -11 3 -26z"/>
<path d="M7400 10350 c-175 -36 -318 -125 -451 -280 -29 -34 -84 -129 -100
-173 l-13 -36 -76 0 c-42 0 -83 -2 -91 -5 -7 -3 -31 -7 -52 -11 -79 -11 -287
-96 -287 -117 0 -4 -4 -8 -10 -8 -27 0 -157 -126 -170 -165 -45 -136 117 -243
225 -149 159 138 277 183 448 169 140 -12 151 -12 171 -1 41 23 76 66 80 101
6 38 33 109 62 163 124 228 415 313 653 192 248 -126 338 -444 195 -687 -24
-42 -130 -153 -145 -153 -14 0 -60 -51 -70 -77 -12 -33 -5 -93 17 -135 39 -71
48 -140 32 -220 -4 -15 -46 -84 -85 -137 -9 -12 -18 -42 -19 -65 -6 -116 121
-187 217 -121 57 40 143 177 157 250 6 33 10 50 13 50 5 0 6 181 1 190 -3 5
-7 19 -8 32 -2 13 -5 32 -9 42 -4 13 3 29 22 48 114 117 197 277 220 428 12
76 6 229 -12 300 -19 75 -64 188 -77 193 -4 2 -8 9 -8 14 0 28 -154 208 -177
208 -7 0 -13 4 -13 9 0 24 -204 130 -280 145 -14 2 -47 9 -74 14 -74 15 -192
12 -286 -8z"/>
<path d="M4998 9514 c-2 -2 -24 -6 -49 -8 -54 -6 -198 -53 -220 -72 -8 -8 -20
-14 -25 -14 -15 0 -89 -52 -139 -98 -44 -40 -47 -41 -74 -28 -29 15 -140 53
-181 61 -189 40 -385 13 -561 -75 -97 -50 -205 -143 -284 -245 -31 -42 -113
-190 -116 -212 -1 -5 -3 -12 -5 -18 -35 -107 -51 -294 -34 -385 15 -72 17 -82
35 -144 30 -103 106 -158 189 -135 55 15 107 84 101 134 -1 11 -14 61 -27 112
-56 212 -6 398 147 549 70 69 178 128 265 144 70 14 201 11 254 -5 53 -16 151
-61 168 -77 28 -28 85 -46 123 -41 47 6 75 23 106 65 81 109 198 184 314 205
40 7 180 10 180 3 0 -1 10 -3 22 -6 46 -8 135 -50 185 -88 60 -43 113 -107
151 -181 36 -69 49 -83 88 -98 66 -26 130 -4 173 60 25 36 27 78 5 128 -7 17
-13 33 -13 36 -1 5 -47 79 -89 143 -17 26 -110 114 -154 146 -71 51 -204 114
-263 125 -93 17 -263 29 -272 19z"/>
</g>
</svg>
